<svg id="Capa_1" enable-background="new 0 0 512 512" height="512" viewBox="0 0 512 512" width="512" xmlns="http://www.w3.org/2000/svg"><g><g id="_x3C_Group_x3E__19_"><path d="m86.084 105.383c-9.813 8.045-16.491 19.434-17.97 32.037-.073.62-.135 1.242-.185 1.868-.296 3.652-.222 7.234.19 10.712.786 6.639-.588 13.329-3.977 19.092-19.409 33.012-30.548 71.462-30.548 112.516 0 47.045 13.616 90.679 38.555 126.62 4.338 6.251 5.958 13.938 4.845 21.465-.587 3.969-.716 4.086-.326 8.3 2.263 24.436 16.988 44.039 41.46 46.141 7.724.664 15.123-.395 21.865-2.828 7.308-2.637 15.346-2.235 22.485.83 26.948 11.569 56.637 17.983 87.828 17.983 29.068 0 56.833-5.569 82.29-15.691 8.88-3.531 18.895-2.815 27.032 2.196 14.361 8.844 31.289 13.928 49.41 13.873 33.429-.101 62.905-13.969 79.432-40.575 8.904-14.334 14.049-31.203 14.029-49.197-.027-24.68-9.61-47.121-25.248-63.836-6.434-6.877-9.442-16.328-7.771-25.596 2.323-12.878 3.537-26.141 3.537-39.687 0-28.361-5.319-55.478-15.004-80.42-3.265-8.409-2.587-17.758 1.729-25.679 4.439-8.145 6.961-17.482 6.961-27.409 0-26.446-17.903-48.704-42.259-55.358-7.951-2.172-14.608-7.705-18.351-15.048-14.442-28.336-43.91-47.747-77.919-47.747-21.963 0-42.031 8.098-57.382 21.465-5.626 4.899-12.779 7.687-20.239 7.683h-.247c-10.556 0-20.94.734-31.104 2.154-2.867.401-5.76.504-8.653.388-.781-.031-1.582-.058-2.402-.081-16.748-.459-41.685 19.068-69.785 28.994-26.053 9.206-39.441 4.311-52.278 14.835z" fill="#a4ace3"/><g><path d="m419.401 280.384c.137-27.866-5.378-46.452-17.353-58.489-9.185-9.232-21.781-13.913-37.442-13.913-7.455 0-14.605 1.441-21.228 4.188-1.973.819-4.142-.629-4.142-2.766v-110.222c0-9.809-8.027-18.139-17.834-17.955-.695.013-1.38.067-2.053.158-8.536 1.164-12.732 10.887-12.732 19.742l1.021 236.681c0 9.809 4.204 13.716 14.011 13.532 8.683-.163 16.24-1.788 17.417-10.186.112-.801.17-1.619.17-2.45v-58.349c0-10.954 2.586-20.264 7.025-26.852 4.478-6.645 10.812-12.972 18.313-12.972 9.051 0 17.267 3.102 18.246 4.085 2.728 2.742 6.775 32.501 6.775 32.542l.214 118.349c.018 9.654 3.668 17.11 13.318 17.11.011 0 15.131-2.973 16.318-11.468.113-.809.171-1.636.169-2.476z" fill="#f5fcff"/><g fill="#e6f7fe"><path d="m337.071 341.201c-9.807.184-17.834-8.146-17.834-17.956v-239.521c0-.794.071-1.57.174-2.337-8.564 1.139-15.174 8.461-15.174 17.337v239.522c0 9.809 8.027 18.139 17.834 17.956 8.72-.163 15.861-6.711 16.992-15.16-.655.086-1.317.146-1.992.159z"/><path d="m417.146 401.204c-.011 0-.021 0-.032 0-9.65 0-17.481-7.814-17.499-17.468l-.214-118.349c0-.041 0-.082 0-.123.119-22.921-15.479-30.743-24.486-31.626-6.511-.638-23.872.83-28.716 19.962 1.134-1.475 6.312-10.579 18.408-10.617 9.051-.029 11.65 2.613 12.629 3.597 2.728 2.742 7.285 10.764 7.166 33.685v.123l.214 118.349c.018 9.654 7.849 17.469 17.499 17.468h.032c8.863-.016 16.156-6.624 17.296-15.172-.754.1-1.516.17-2.297.171z"/></g><g><path d="m185.743 351.511c-42.909-1.362-82.786-33.247-82.786-82.043 0-26.564 6.058-52.19 24.651-68.424 15.561-13.587 35.903-21.827 58.134-21.827 48.795 0 88.493 39.698 88.493 88.493 0 21.768-7.901 41.726-20.985 57.156-16.244 19.159-40.48 26.645-67.507 26.645zm0-137.294c-29.496 0-53.493 23.997-53.493 53.493 0 29.497 23.997 53.494 53.493 53.494s53.493-23.997 53.493-53.494c0-29.496-23.997-53.493-53.493-53.493z" fill="#f5fcff"/></g><g><path d="m200.743 341.204c-48.795 0-88.493-39.698-88.493-88.494 0-20.584 7.064-39.549 18.896-54.598-20.626 16.216-33.896 41.386-33.896 69.598 0 48.795 39.698 88.494 88.493 88.494 28.211 0 53.382-13.27 69.597-33.896-15.049 11.832-34.013 18.896-54.597 18.896z" fill="#e6f7fe"/></g><g fill="#f5fcff"><path d="m175.672 408.704c0-12.426-10.074-22.5-22.5-22.5-2.383 0-4.68.371-6.836 1.057-9.084 2.894-14.931 11.4-14.931 21.443 0 12.426 9.276 21.53 21.702 21.53 10.15 0 18.796-5.751 21.599-14.985.628-2.071.966-4.269.966-6.545z"/><path d="m251.194 408.704c0-12.426-10.074-22.5-22.5-22.5-2.276 0-4.472.338-6.543.966-9.235 2.802-14.853 11.383-14.853 21.534 0 12.426 8.969 21.019 21.396 21.019 10.186 0 18.79-5.287 21.563-14.572.609-2.042.937-4.206.937-6.447z"/><path d="m326.194 408.704c0-12.426-10.074-22.5-22.5-22.5-2.523 0-4.949.415-7.214 1.181-8.888 3.007-13.693 11.899-13.693 21.802 0 12.426 8.34 19.94 20.766 19.94 10.151 0 18.872-4.645 21.674-13.88.629-2.07.967-4.267.967-6.543z"/></g><g fill="#e6f7fe"><path d="m168.172 416.204c-12.426 0-22.5-10.074-22.5-22.5 0-2.273.34-4.465.967-6.533-9.24 2.8-15.967 11.379-15.967 21.533 0 12.426 10.074 22.5 22.5 22.5 10.154 0 18.733-6.727 21.533-15.967-2.068.627-4.261.967-6.533.967z"/><path d="m243.694 416.204c-12.427 0-22.5-10.074-22.5-22.5 0-2.273.34-4.465.967-6.533-9.24 2.8-15.967 11.379-15.967 21.533 0 12.426 10.073 22.5 22.5 22.5 10.154 0 18.733-6.727 21.533-15.967-2.068.627-4.261.967-6.533.967z"/><path d="m318.694 416.204c-12.427 0-22.5-10.074-22.5-22.5 0-2.273.34-4.465.967-6.533-9.24 2.8-15.967 11.379-15.967 21.533 0 12.426 10.073 22.5 22.5 22.5 10.154 0 18.733-6.727 21.533-15.967-2.068.627-4.261.967-6.533.967z"/></g></g><path d="m64.597 35.024c0-15.201-12.334-27.524-27.549-27.524-2.324 0-4.582.288-6.738.829-11.957 3.003-19.81 13.816-19.81 26.695 0 15.201 11.334 26.524 26.548 26.524 12.898 0 23.726-7.856 26.724-19.814.539-2.148.825-4.396.825-6.71z" fill="#f5fcff"/><path d="m57.048 42.547c-15.215 0-27.548-12.323-27.548-27.524 0-2.309.289-4.551.825-6.694-11.964 2.999-20.825 13.811-20.825 26.695 0 15.201 12.334 27.524 27.548 27.524 12.903 0 23.73-8.864 26.724-20.829-2.152.539-4.404.828-6.724.828z" fill="#e6f7fe"/><path d="m429.038 480.5c-18.121.055-35.049-5.029-49.41-13.873-8.137-5.011-18.152-5.727-27.032-2.196-25.457 10.122-53.222 15.691-82.29 15.691-31.193 0-71.886-10.415-98.834-21.986-7.172-3.079-15.237-3.423-22.584-.79-6.714 2.406-14.077 3.45-21.76 2.79-24.472-2.103-29.877-27.604-29.46-36.141.207-4.228-.261-8.332.326-12.3 1.134-7.666-.688-15.45-5.094-21.825-24.774-35.845-37.262-75.27-37.262-122.158 0-41.054 7.144-63.614 26.553-96.626 3.388-5.763 1.699-15.176.913-21.815-.003-.024-.006-.05-.009-.077-.856-7.742 8.21-12.52 14.153-7.485 12.293 10.417 28.201 16.701 45.586 16.701 38.978 0 70.577-31.57 70.577-70.514 0-9.311-1.823-18.192-5.105-26.329-16.749-.474-41.742 1.002-69.944 10.964-26.052 9.203-45.441 22.328-58.278 32.852-.754.619-1.483 1.263-2.2 1.92-.075.069-.148.14-.223.209-8.479 7.868-14.194 18.374-15.548 29.907-.073.62-.135 1.242-.185 1.868-.296 3.652-.222 7.234.19 10.712.786 6.639-.588 13.329-3.977 19.092-19.409 33.012-30.548 71.462-30.548 112.516 0 47.046 14.616 90.68 39.555 126.621 4.337 6.251 5.957 13.938 4.844 21.464-.587 3.969-.716 8.086-.326 12.301 2.263 24.436 21.988 44.039 46.46 46.141 7.724.664 15.123-.395 21.866-2.828 7.308-2.637 15.345-2.235 22.484.83 26.948 11.57 56.637 17.984 87.829 17.984 29.068 0 56.833-5.569 82.29-15.691 8.88-3.531 18.895-2.815 27.032 2.196 14.361 8.844 31.289 13.928 49.41 13.873 34.327-.103 64.481-18.945 80.731-46.741-16.364 14.093-37.599 22.673-60.73 22.743z" fill="#8a94db"/><path d="m189.831 87.897c0-25.932-21.041-46.955-46.997-46.955-7.838 0-15.228 1.917-21.726 5.307-15.019 7.837-24.271 23.546-24.271 41.647 0 25.932 20.041 45.955 45.997 45.955 17.842 0 33.363-8.934 41.322-23.568 3.619-6.655 5.675-14.281 5.675-22.386z" fill="#f5fcff"/><path d="m162.834 114.851c-25.956 0-46.997-21.022-46.997-46.954 0-7.809 1.919-15.167 5.295-21.646-15.029 7.834-25.295 23.537-25.295 41.646 0 25.932 21.041 46.954 46.997 46.954 18.139 0 33.867-10.274 41.701-25.309-6.493 3.385-13.87 5.309-21.701 5.309z" fill="#e6f7fe"/></g><g><path d="m482.77 341.813c-4.917-5.262-7.126-12.435-5.908-19.187 2.426-13.45 3.655-27.25 3.655-41.018 0-28.656-5.22-56.626-15.514-83.135-2.441-6.289-1.959-13.351 1.323-19.375 5.152-9.452 7.876-20.171 7.876-30.998 0-29.168-19.648-54.907-47.782-62.593-5.854-1.599-10.825-5.685-13.641-11.211-16.297-31.981-48.716-51.849-84.605-51.849-22.953 0-45.108 8.301-62.384 23.375-4.267 3.724-9.665 5.774-15.212 5.774-.009 0-.018 0-.026 0h-.247c-12.21 0-24.469.965-36.436 2.868-4.091.65-6.88 4.494-6.229 8.584.65 4.09 4.488 6.88 8.585 6.229 11.19-1.779 22.656-2.682 34.08-2.682h.238.044c9.165 0 18.065-3.363 25.065-9.472 14.543-12.689 33.195-19.677 52.521-19.677 30.22 0 57.518 16.729 71.24 43.659 4.729 9.283 13.132 16.161 23.053 18.871 21.629 5.909 36.735 25.698 36.735 48.123 0 8.326-2.091 16.563-6.047 23.82-5.4 9.91-6.179 21.567-2.135 31.981 9.619 24.771 14.496 50.915 14.496 77.706 0 12.877-1.149 25.782-3.417 38.356-2.054 11.389 1.575 23.385 9.71 32.09 14.93 15.976 23.165 36.816 23.189 58.682.053 47.423-38.521 86.121-85.984 86.263-.089 0-.176 0-.265 0-15.957 0-31.533-4.382-45.06-12.68-10.115-6.205-22.755-7.282-33.813-2.881-25.315 10.074-52.088 15.182-79.573 15.182-6.758 0-13.576-.317-20.266-.941-4.125-.39-7.779 2.646-8.165 6.77-.385 4.125 2.646 7.78 6.771 8.165 7.15.668 14.438 1.007 21.66 1.007 29.393 0 58.031-5.466 85.12-16.245 6.783-2.698 14.228-2.069 20.422 1.73 15.89 9.747 34.175 14.894 52.903 14.894h.31c55.72-.167 101.001-45.602 100.939-101.28-.024-25.674-9.695-50.146-27.226-68.905z"/><path d="m196.707 489.895c-10.76-2.757-21.394-6.389-31.607-10.793-8.811-3.802-18.631-4.104-27.652-.849-5.965 2.152-12.247 2.963-18.679 2.41-20.681-1.777-37.72-18.698-39.633-39.361-.326-3.524-.233-7.061.276-10.51 1.421-9.604-.708-19.08-5.993-26.683-25.072-36.065-38.325-78.425-38.325-122.5 0-38.28 10.205-75.873 29.513-108.714 4.234-7.201 6.014-15.5 5.01-23.367-.402-3.158-.475-6.399-.212-9.633.675-8.327 3.681-16.315 8.692-23.101 2.461-3.332 1.754-8.028-1.578-10.489-3.331-2.46-8.027-1.755-10.488 1.578-6.673 9.036-10.676 19.687-11.577 30.8-.346 4.268-.25 8.556.284 12.743.585 4.589-.502 9.513-3.062 13.866-20.661 35.144-31.582 75.366-31.582 116.317 0 47.151 14.181 92.472 41.009 131.062 3.099 4.457 4.331 10.113 3.472 15.927-.686 4.633-.812 9.373-.374 14.088 2.614 28.237 25.024 50.494 53.285 52.922 8.607.74 17.035-.354 25.052-3.245 5.422-1.956 11.323-1.774 16.621.512 10.431 4.296 23.643 9.486 35.692 11.788 3.344 0 6.393-2.252 7.261-5.64 1.027-4.014-1.392-8.1-5.405-9.128z"/><path d="m339.024 80.879c-4.826-4.736-11.121-7.274-17.763-7.151-13.523.253-24.525 11.466-24.525 24.995v239.522c-.238 12.571 11.21 25.976 25.475 25.454 13.523-.253 24.525-11.466 24.525-24.996v-58.349c0-17.588 7.349-29.873 17.87-29.873 3.659 0 6.475.518 7.312 1.386 1.09 1.131 5.101 5.782 4.983 28.396l.214 118.485c.025 13.761 11.24 24.955 25.045 24.955 13.785-.025 24.98-11.26 24.955-25.045l-.079-43.587c-.008-4.138-3.364-7.486-7.5-7.486-.004 0-.009 0-.014 0-4.142.007-7.494 3.372-7.486 7.514l.079 43.587c.01 5.514-4.468 10.008-10.001 10.018-5.504 0-9.989-4.478-9.999-9.982l-.214-118.335v-.083c.102-19.55-3.044-32.676-9.35-39.015-2.48-2.492-7.039-5.806-17.945-5.806-19.354 0-32.87 18.452-32.87 44.873v58.349c0 5.412-4.399 9.897-9.807 9.999-4.078.143-10.254-4.082-10.193-10.457v-239.523c0-5.412 4.399-9.896 9.807-9.998 4.116-.151 10.237 4.084 10.193 10.457v110.223c0 3.514 1.744 6.776 4.665 8.728 2.92 1.95 6.602 2.312 9.85.966 5.785-2.399 11.96-3.616 18.355-3.616 13.592 0 24.4 3.937 32.125 11.702 10.476 10.53 15.296 27.423 15.17 53.213l.072 39.722c.008 4.138 3.364 7.486 7.5 7.486 3.084-.004 7.278-2.821 7.5-7.514l-.072-39.672c.147-29.992-6.061-50.27-19.535-63.815-10.644-10.699-25.03-16.123-42.76-16.123-6.13 0-12.116.857-17.87 2.555v-103.856c0-6.822-2.81-13.493-7.712-18.303z"/><path d="m185.743 171.717c-38.068 0-72.583 22.566-87.931 57.489-1.666 3.792.057 8.217 3.849 9.884 3.791 1.668 8.217-.057 9.884-3.849 12.954-29.477 42.079-48.524 74.198-48.524 44.66 0 80.993 36.333 80.993 80.993s-36.333 80.994-80.993 80.994c-44.62.091-81.684-37.011-80.987-82.035.054-4.142-3.261-7.542-7.402-7.596-4.174-.052-7.543 3.26-7.596 7.403-.778 52.957 42.633 97.381 95.985 97.228 52.931 0 95.993-43.063 95.993-95.994 0-52.93-43.062-95.993-95.993-95.993z"/><path d="m185.743 328.704c33.632 0 60.993-27.362 60.993-60.994s-27.361-60.993-60.993-60.993-60.993 27.361-60.993 60.993 27.361 60.994 60.993 60.994zm0-106.987c25.36 0 45.993 20.632 45.993 45.993s-20.633 45.994-45.993 45.994-45.993-20.633-45.993-45.994 20.633-45.993 45.993-45.993z"/><path d="m123.172 408.704c0 16.542 13.458 30 30 30s30-13.458 30-30-13.458-30-30-30-30 13.458-30 30zm45 0c0 8.271-6.729 15-15 15s-15-6.729-15-15 6.729-15 15-15 15 6.729 15 15z"/><path d="m258.693 408.704c0-16.542-13.458-30-30-30s-30 13.458-30 30 13.458 30 30 30 30-13.458 30-30zm-45 0c0-8.271 6.729-15 15-15s15 6.729 15 15-6.729 15-15 15-15-6.729-15-15z"/><path d="m273.693 408.704c0 16.542 13.458 30 30 30s30-13.458 30-30-13.458-30-30-30-30 13.458-30 30zm30-15c8.271 0 15 6.729 15 15s-6.729 15-15 15-15-6.729-15-15 6.729-15 15-15z"/><path d="m72.097 35.024c0-19.313-15.723-35.024-35.048-35.024-19.326 0-35.049 15.711-35.049 35.024 0 19.312 15.723 35.023 35.049 35.023 19.325 0 35.048-15.711 35.048-35.023zm-55.097 0c0-11.041 8.994-20.024 20.049-20.024s20.048 8.983 20.048 20.024-8.993 20.023-20.048 20.023-20.049-8.982-20.049-20.023z"/><path d="m142.834 142.351c30.05 0 54.497-24.428 54.497-54.455s-24.447-54.455-54.497-54.455c-30.049 0-54.496 24.428-54.496 54.455s24.447 54.455 54.496 54.455zm0-93.909c21.778 0 39.497 17.699 39.497 39.455s-17.719 39.455-39.497 39.455-39.496-17.699-39.496-39.455 17.718-39.455 39.496-39.455z"/></g></g></svg>